# xmcd
#
# Track frame offsets:
#	150
#	21413
#	41671
#	66852
#	88553
#	107176
#	134252
#	157824
#	178061
#	201779
#	226267
#	256173
#
# Disc length: 3706 seconds
#
# Revision: 4
# Processed by: cddbd v1.5.2PL0 Copyright (c) Steve Scherf et al.
# Submitted via: EasyCDDAExtractor 16.0.9.1
#
DISCID=9c0e780c
DTITLE=Quang Dũng - Biển Nghìn Thu Ở Lại
DYEAR=2001
DGENRE=Pop
TTITLE0=Vì Đó Là Em
TTITLE1=Biển Nghìn Thu Ở Lại
TTITLE2=Em Đã Xa Tôi
TTITLE3=Còn Ta Với Nồng Nàn
TTITLE4=Chiều Một Mình Qua Phố
TTITLE5=Biển Cạn
TTITLE6=Khắc Khoải
TTITLE7=Còn Ai Với Ai
TTITLE8=Hạt Mưa Buồn
TTITLE9=Điệu Khúc Cho Ly Biệt
TTITLE10=Bên Em Ngày Cuối
TTITLE11=Còn Ta Với Nồng Nàn
EXTD=YEAR: 2004
EXTT0=
EXTT1=
EXTT2=
EXTT3=
EXTT4=
EXTT5=
EXTT6=
EXTT7=
EXTT8=
EXTT9=
EXTT10=
EXTT11=
PLAYORDER=
